<!-- Generated by IcoMoon.io -->
<svg version="1.1" xmlns="http://www.w3.org/2000/svg" width="640" height="1024" viewBox="0 0 640 1024">
<title></title>
<g id="icomoon-ignore">
</g>
<path d="M288.175 988.406c-55.63-40.4-95.724-101.005-109.256-171.226h-178.919v-739.743c95.724 46.174 164.886 147.179 172.404 252.031l27.063 207.782-13.031-1.443c-28.567 0-53.626 25.974-53.626 51.466 0 24.048 19.045 44.25 44.103 49.539l32.576 7.216c53.626-97.638 84.197-193.354 84.197-287.142 0-84.653-11.527-169.305-13.532-255.881 0-38.478 15.537-73.589 40.093-101.005 25.059 27.416 40.096 62.527 40.096 101.005 0 86.576-13.533 171.228-13.533 255.881 0 93.789 30.573 189.504 84.198 287.142l32.576-7.216c25.059-5.29 44.102-25.971 44.102-49.539 0-25.974-25.059-51.466-53.626-51.466l-13.533 1.923 27.066-207.782c13.53-104.852 76.678-206.338 172.403-252.030v739.742h-178.419c-13.53 69.741-51.619 132.749-109.254 171.229-13.533 9.139-25.059 20.202-32.577 35.11-7.016-14.909-18.543-25.971-31.574-35.594zM84.699 561.782c7.517-27.418 28.567-51.466 55.63-66.378l-21.049-171.226c-7.518-53.389-30.572-101.006-65.153-139.965v377.085h30.572v0.483zM174.91 765.715c0-25.971 4.010-49.539 9.523-73.59l-25.059-5.77c-36.586-11.062-65.153-38.48-74.675-73.59h-30.572v152.95h120.783zM293.688 765.715c0-31.264-25.059-58.678-57.635-62.528-5.513 20.202-9.522 40.403-9.522 62.528h67.157zM293.688 817.661h-59.64c9.522 40.403 30.572 77.437 59.64 108.701v-108.701zM377.885 657.494c-23.053-40.4-44.102-82.726-57.635-126.976-13.531 44.25-34.58 86.576-57.634 126.976 23.054 5.293 42.099 20.202 57.634 37.037 15.536-16.835 34.582-31.744 57.635-37.037zM414.47 765.715c0-22.125-4.010-42.326-9.52-62.528-32.579 3.85-57.635 31.264-57.635 62.528h67.155zM406.954 817.661h-59.638v108.701c29.066-31.744 50.115-68.298 59.638-108.701zM586.877 765.715v-152.95h-30.573c-9.523 35.11-38.592 62.528-74.675 73.59l-25.059 5.77c5.514 24.051 9.523 47.619 9.523 73.59h120.784zM586.877 561.782v-377.568c-34.582 38.478-59.642 86.576-65.155 139.965l-21.050 171.226c27.066 14.912 48.115 38.48 55.632 66.378h30.573z"></path>
</svg>
