<svg aria-hidden="true" style="position: absolute; width: 0; height: 0; overflow: hidden;" version="1.1" xmlns="http://www.w3.org/2000/svg" xmlns:xlink="http://www.w3.org/1999/xlink">
<defs>
<symbol id="icon-01" viewBox="0 0 38 32">
<path d="M14.132 29.58c-2.525 0-4.711-0.611-6.557-1.833-1.819-1.249-3.217-2.973-4.195-5.172-0.977-2.226-1.466-4.806-1.466-7.738s0.489-5.498 1.466-7.697c0.977-2.226 2.376-3.951 4.195-5.172 1.846-1.249 4.032-1.873 6.557-1.873s4.697 0.625 6.516 1.873c1.819 1.222 3.217 2.946 4.195 5.172 0.977 2.199 1.466 4.765 1.466 7.697s-0.489 5.512-1.466 7.738c-0.977 2.199-2.376 3.923-4.195 5.172-1.819 1.222-3.991 1.833-6.516 1.833zM14.132 26.566c1.656 0 3.136-0.462 4.439-1.385 1.33-0.95 2.362-2.294 3.095-4.032 0.76-1.765 1.14-3.869 1.14-6.313s-0.38-4.534-1.14-6.272c-0.733-1.738-1.765-3.068-3.095-3.991-1.303-0.95-2.783-1.425-4.439-1.425-1.683 0-3.177 0.475-4.48 1.425-1.303 0.923-2.335 2.254-3.095 3.991s-1.14 3.828-1.14 6.272c0 2.444 0.38 4.548 1.14 6.313 0.76 1.738 1.792 3.082 3.095 4.032 1.303 0.923 2.797 1.385 4.48 1.385zM32.433 29.091v-24.681l-4.602 1.018v-2.362l5.742-2.484h2.321v28.509h-3.462z"></path>
</symbol>
<symbol id="icon-02" viewBox="0 0 49 32">
<path d="M14.132 29.58c-2.525 0-4.711-0.611-6.557-1.833-1.819-1.249-3.217-2.973-4.195-5.172-0.977-2.226-1.466-4.806-1.466-7.738s0.489-5.498 1.466-7.697c0.977-2.226 2.376-3.951 4.195-5.172 1.846-1.249 4.032-1.873 6.557-1.873s4.697 0.625 6.516 1.873c1.819 1.222 3.217 2.946 4.195 5.172 0.977 2.199 1.466 4.765 1.466 7.697s-0.489 5.512-1.466 7.738c-0.977 2.199-2.376 3.923-4.195 5.172-1.819 1.222-3.991 1.833-6.516 1.833zM14.132 26.566c1.656 0 3.136-0.462 4.439-1.385 1.33-0.95 2.362-2.294 3.095-4.032 0.76-1.765 1.14-3.869 1.14-6.313s-0.38-4.534-1.14-6.272c-0.733-1.738-1.765-3.068-3.095-3.991-1.303-0.95-2.783-1.425-4.439-1.425-1.683 0-3.177 0.475-4.48 1.425-1.303 0.923-2.335 2.254-3.095 3.991s-1.14 3.828-1.14 6.272c0 2.444 0.38 4.548 1.14 6.313 0.76 1.738 1.792 3.082 3.095 4.032 1.303 0.923 2.797 1.385 4.48 1.385zM28.778 29.091v-2.403c1.928-1.52 3.747-3.055 5.457-4.602 1.738-1.575 3.272-3.122 4.602-4.643 1.358-1.521 2.417-3.014 3.177-4.48 0.788-1.466 1.181-2.878 1.181-4.236 0-1.005-0.177-1.941-0.529-2.81-0.326-0.869-0.869-1.561-1.629-2.077-0.76-0.543-1.792-0.815-3.095-0.815-1.249 0-2.294 0.285-3.136 0.855-0.842 0.543-1.48 1.276-1.914 2.199-0.407 0.923-0.611 1.914-0.611 2.973h-3.299c0-1.873 0.394-3.475 1.181-4.806 0.788-1.358 1.86-2.389 3.217-3.095s2.892-1.059 4.602-1.059c2.525 0 4.589 0.72 6.191 2.159 1.629 1.412 2.444 3.53 2.444 6.353 0 1.683-0.421 3.353-1.263 5.009-0.842 1.629-1.914 3.217-3.217 4.765-1.303 1.52-2.702 2.946-4.195 4.276-1.466 1.33-2.837 2.525-4.113 3.584h13.766v2.851h-18.816z"></path>
</symbol>
<symbol id="icon-03" viewBox="0 0 49 32">
<path d="M14.132 29.58c-2.525 0-4.711-0.611-6.557-1.833-1.819-1.249-3.217-2.973-4.195-5.172-0.977-2.226-1.466-4.806-1.466-7.738s0.489-5.498 1.466-7.697c0.977-2.226 2.376-3.951 4.195-5.172 1.846-1.249 4.032-1.873 6.557-1.873s4.697 0.625 6.516 1.873c1.819 1.222 3.217 2.946 4.195 5.172 0.977 2.199 1.466 4.765 1.466 7.697s-0.489 5.512-1.466 7.738c-0.977 2.199-2.376 3.923-4.195 5.172-1.819 1.222-3.991 1.833-6.516 1.833zM14.132 26.566c1.656 0 3.136-0.462 4.439-1.385 1.33-0.95 2.362-2.294 3.095-4.032 0.76-1.765 1.14-3.869 1.14-6.313s-0.38-4.534-1.14-6.272c-0.733-1.738-1.765-3.068-3.095-3.991-1.303-0.95-2.783-1.425-4.439-1.425-1.683 0-3.177 0.475-4.48 1.425-1.303 0.923-2.335 2.254-3.095 3.991s-1.14 3.828-1.14 6.272c0 2.444 0.38 4.548 1.14 6.313 0.76 1.738 1.792 3.082 3.095 4.032 1.303 0.923 2.797 1.385 4.48 1.385zM38.502 29.58c-1.819 0-3.462-0.326-4.928-0.977-1.466-0.679-2.647-1.683-3.543-3.014-0.869-1.33-1.33-2.987-1.385-4.969h3.462c0.027 1.629 0.598 3.041 1.711 4.236 1.113 1.168 2.675 1.751 4.684 1.751s3.516-0.557 4.521-1.67c1.032-1.113 1.548-2.457 1.548-4.032 0-1.33-0.326-2.416-0.977-3.258-0.624-0.842-1.48-1.466-2.566-1.873-1.059-0.407-2.226-0.611-3.503-0.611h-2.118v-2.892h2.118c1.846 0 3.286-0.421 4.317-1.263 1.059-0.842 1.588-2.023 1.588-3.543 0-1.276-0.421-2.321-1.263-3.136-0.815-0.842-2.036-1.263-3.665-1.263-1.575 0-2.837 0.475-3.788 1.425-0.95 0.923-1.48 2.091-1.588 3.503h-3.462c0.081-1.548 0.489-2.919 1.222-4.113 0.76-1.195 1.792-2.118 3.095-2.769 1.303-0.679 2.81-1.018 4.521-1.018 1.846 0 3.38 0.326 4.602 0.977 1.249 0.652 2.186 1.52 2.81 2.607 0.652 1.086 0.977 2.281 0.977 3.584 0 1.439-0.394 2.756-1.181 3.951-0.787 1.168-1.968 1.955-3.543 2.362 1.684 0.353 3.082 1.154 4.195 2.403s1.67 2.892 1.67 4.928c0 1.575-0.367 3.027-1.1 4.358-0.706 1.303-1.765 2.349-3.177 3.136s-3.163 1.181-5.254 1.181z"></path>
</symbol>
<symbol id="icon-04" viewBox="0 0 52 32">
<path d="M14.132 29.58c-2.525 0-4.711-0.611-6.557-1.833-1.819-1.249-3.217-2.973-4.195-5.172-0.977-2.226-1.466-4.806-1.466-7.738s0.489-5.498 1.466-7.697c0.977-2.226 2.376-3.951 4.195-5.172 1.846-1.249 4.032-1.873 6.557-1.873s4.697 0.625 6.516 1.873c1.819 1.222 3.217 2.946 4.195 5.172 0.977 2.199 1.466 4.765 1.466 7.697s-0.489 5.512-1.466 7.738c-0.977 2.199-2.376 3.923-4.195 5.172-1.819 1.222-3.991 1.833-6.516 1.833zM14.132 26.566c1.656 0 3.136-0.462 4.439-1.385 1.33-0.95 2.362-2.294 3.095-4.032 0.76-1.765 1.14-3.869 1.14-6.313s-0.38-4.534-1.14-6.272c-0.733-1.738-1.765-3.068-3.095-3.991-1.303-0.95-2.783-1.425-4.439-1.425-1.683 0-3.177 0.475-4.48 1.425-1.303 0.923-2.335 2.254-3.095 3.991s-1.14 3.828-1.14 6.272c0 2.444 0.38 4.548 1.14 6.313 0.76 1.738 1.792 3.082 3.095 4.032 1.303 0.923 2.797 1.385 4.48 1.385zM42.534 29.091v-6.109h-14.458v-2.647l13.847-19.753h3.991v19.386h4.236v3.014h-4.236v6.109h-3.38zM31.863 19.968h10.833v-15.599l-10.833 15.599z"></path>
</symbol>
<symbol id="icon-05" viewBox="0 0 49 32">
<path d="M14.132 29.58c-2.525 0-4.711-0.611-6.557-1.833-1.819-1.249-3.217-2.973-4.195-5.172-0.977-2.226-1.466-4.806-1.466-7.738s0.489-5.498 1.466-7.697c0.977-2.226 2.376-3.951 4.195-5.172 1.846-1.249 4.032-1.873 6.557-1.873s4.697 0.625 6.516 1.873c1.819 1.222 3.217 2.946 4.195 5.172 0.977 2.199 1.466 4.765 1.466 7.697s-0.489 5.512-1.466 7.738c-0.977 2.199-2.376 3.923-4.195 5.172-1.819 1.222-3.991 1.833-6.516 1.833zM14.132 26.566c1.656 0 3.136-0.462 4.439-1.385 1.33-0.95 2.362-2.294 3.095-4.032 0.76-1.765 1.14-3.869 1.14-6.313s-0.38-4.534-1.14-6.272c-0.733-1.738-1.765-3.068-3.095-3.991-1.303-0.95-2.783-1.425-4.439-1.425-1.683 0-3.177 0.475-4.48 1.425-1.303 0.923-2.335 2.254-3.095 3.991s-1.14 3.828-1.14 6.272c0 2.444 0.38 4.548 1.14 6.313 0.76 1.738 1.792 3.082 3.095 4.032 1.303 0.923 2.797 1.385 4.48 1.385zM39.316 29.58c-1.955 0-3.652-0.353-5.091-1.059s-2.593-1.67-3.462-2.892c-0.842-1.249-1.357-2.661-1.548-4.236h3.34c0.326 1.575 1.086 2.851 2.281 3.828 1.195 0.95 2.702 1.425 4.521 1.425 1.358 0 2.525-0.312 3.503-0.937 0.977-0.652 1.724-1.52 2.24-2.607 0.543-1.086 0.815-2.294 0.815-3.625 0-2.118-0.597-3.828-1.792-5.132s-2.742-1.955-4.643-1.955c-1.575 0-2.919 0.353-4.032 1.059s-1.928 1.629-2.444 2.769h-3.258l2.444-15.639h14.947v2.973h-12.3l-1.67 8.675c0.652-0.787 1.548-1.439 2.688-1.955 1.168-0.516 2.498-0.774 3.991-0.774 1.873 0 3.503 0.434 4.887 1.303 1.412 0.869 2.512 2.050 3.299 3.543s1.181 3.19 1.181 5.091c0 1.819-0.394 3.503-1.181 5.050-0.76 1.548-1.887 2.783-3.38 3.706-1.466 0.923-3.245 1.385-5.335 1.385z"></path>
</symbol>
<symbol id="icon-06" viewBox="0 0 52 32">
<path d="M14.132 29.58c-2.525 0-4.711-0.611-6.557-1.833-1.819-1.249-3.217-2.973-4.195-5.172-0.977-2.226-1.466-4.806-1.466-7.738s0.489-5.498 1.466-7.697c0.977-2.226 2.376-3.951 4.195-5.172 1.846-1.249 4.032-1.873 6.557-1.873s4.697 0.625 6.516 1.873c1.819 1.222 3.217 2.946 4.195 5.172 0.977 2.199 1.466 4.765 1.466 7.697s-0.489 5.512-1.466 7.738c-0.977 2.199-2.376 3.923-4.195 5.172-1.819 1.222-3.991 1.833-6.516 1.833zM14.132 26.566c1.656 0 3.136-0.462 4.439-1.385 1.33-0.95 2.362-2.294 3.095-4.032 0.76-1.765 1.14-3.869 1.14-6.313s-0.38-4.534-1.14-6.272c-0.733-1.738-1.765-3.068-3.095-3.991-1.303-0.95-2.783-1.425-4.439-1.425-1.683 0-3.177 0.475-4.48 1.425-1.303 0.923-2.335 2.254-3.095 3.991s-1.14 3.828-1.14 6.272c0 2.444 0.38 4.548 1.14 6.313 0.76 1.738 1.792 3.082 3.095 4.032 1.303 0.923 2.797 1.385 4.48 1.385zM39.887 29.58c-2.063 0-3.801-0.38-5.213-1.14-1.412-0.787-2.552-1.833-3.421-3.136-0.842-1.303-1.466-2.756-1.873-4.358-0.38-1.629-0.57-3.285-0.57-4.969 0-3.15 0.435-5.905 1.303-8.268 0.869-2.389 2.118-4.249 3.747-5.58 1.656-1.358 3.652-2.036 5.987-2.036 1.792 0 3.326 0.353 4.602 1.059s2.281 1.656 3.014 2.851c0.76 1.168 1.236 2.471 1.425 3.91h-3.177c-0.298-1.548-0.964-2.742-1.996-3.584s-2.335-1.263-3.91-1.263c-2.145 0-3.951 1.018-5.417 3.055-1.439 2.009-2.213 5.159-2.321 9.449 0.652-1.276 1.684-2.376 3.095-3.299 1.439-0.95 3.163-1.425 5.172-1.425 1.629 0 3.15 0.38 4.561 1.14 1.439 0.76 2.607 1.833 3.503 3.217 0.896 1.358 1.344 2.959 1.344 4.806 0 1.602-0.394 3.136-1.181 4.602s-1.928 2.661-3.421 3.584c-1.466 0.923-3.217 1.385-5.254 1.385zM39.642 26.566c1.276 0 2.417-0.271 3.421-0.815s1.792-1.29 2.362-2.24c0.57-0.977 0.855-2.091 0.855-3.34 0-1.928-0.638-3.462-1.914-4.602-1.249-1.168-2.824-1.751-4.724-1.751-1.276 0-2.416 0.299-3.421 0.896-1.005 0.57-1.805 1.344-2.403 2.321-0.57 0.977-0.855 2.036-0.855 3.177 0 1.222 0.285 2.321 0.855 3.299 0.598 0.95 1.398 1.697 2.403 2.24s2.145 0.815 3.421 0.815z"></path>
</symbol>
<symbol id="icon-gerb" viewBox="0 0 20 32">
<path d="M9.005 30.888c-1.738-1.262-2.991-3.156-3.414-5.351h-5.591v-23.117c2.991 1.443 5.153 4.599 5.388 7.876l0.846 6.493-0.407-0.045c-0.893 0-1.676 0.812-1.676 1.608 0 0.752 0.595 1.383 1.378 1.548l1.018 0.226c1.676-3.051 2.631-6.042 2.631-8.973 0-2.645-0.36-5.291-0.423-7.996 0-1.202 0.486-2.3 1.253-3.156 0.783 0.857 1.253 1.954 1.253 3.156 0 2.705-0.423 5.351-0.423 7.996 0 2.931 0.955 5.922 2.631 8.973l1.018-0.226c0.783-0.165 1.378-0.812 1.378-1.548 0-0.812-0.783-1.608-1.676-1.608l-0.423 0.060 0.846-6.493c0.423-3.277 2.396-6.448 5.388-7.876v23.117h-5.576c-0.423 2.179-1.613 4.148-3.414 5.351-0.423 0.286-0.783 0.631-1.018 1.097-0.219-0.466-0.579-0.812-0.987-1.112zM2.647 17.556c0.235-0.857 0.893-1.608 1.738-2.074l-0.658-5.351c-0.235-1.668-0.955-3.156-2.036-4.374v11.784h0.955v0.015zM5.466 23.929c0-0.812 0.125-1.548 0.298-2.3l-0.783-0.18c-1.143-0.346-2.036-1.203-2.334-2.3h-0.955v4.78h3.774zM9.178 23.929c0-0.977-0.783-1.834-1.801-1.954-0.172 0.631-0.298 1.263-0.298 1.954h2.099zM9.178 25.552h-1.864c0.298 1.263 0.955 2.42 1.864 3.397v-3.397zM11.809 20.547c-0.72-1.262-1.378-2.585-1.801-3.968-0.423 1.383-1.081 2.706-1.801 3.968 0.72 0.165 1.316 0.631 1.801 1.157 0.486-0.526 1.081-0.992 1.801-1.157zM12.952 23.929c0-0.691-0.125-1.323-0.297-1.954-1.018 0.12-1.801 0.977-1.801 1.954h2.099zM12.717 25.552h-1.864v3.397c0.908-0.992 1.566-2.134 1.864-3.397zM18.34 23.929v-4.78h-0.955c-0.298 1.097-1.206 1.954-2.334 2.3l-0.783 0.18c0.172 0.752 0.298 1.488 0.298 2.3h3.774zM18.34 17.556v-11.799c-1.081 1.202-1.864 2.706-2.036 4.374l-0.658 5.351c0.846 0.466 1.504 1.203 1.739 2.074h0.955z"></path>
</symbol>
<symbol id="icon-vector_modal" viewBox="0 0 55 32">
<path d="M24.724 19.048c0.354 0.357 0.775 0.64 1.24 0.834s0.962 0.293 1.465 0.293c0.503 0 1.001-0.1 1.465-0.293s0.886-0.477 1.24-0.834l17.448-17.486c0.354-0.357 0.776-0.64 1.24-0.834s0.962-0.293 1.465-0.293 1.001 0.1 1.465 0.293c0.464 0.193 0.886 0.477 1.24 0.834 0.709 0.714 1.108 1.679 1.108 2.686s-0.398 1.972-1.108 2.686l-17.486 17.486c-2.143 2.14-5.048 3.342-8.076 3.342s-5.933-1.202-8.076-3.342l-17.486-17.486c-0.704-0.71-1.101-1.667-1.105-2.667-0.003-0.501 0.093-0.998 0.283-1.462s0.469-0.886 0.822-1.242c0.354-0.357 0.775-0.64 1.24-0.834s0.962-0.293 1.465-0.293c0.503 0 1.001 0.1 1.465 0.293s0.886 0.477 1.24 0.834l17.448 17.486z"></path>
</symbol>
</defs>
</svg>
